<svg width="20" height="20" viewBox="0 0 20 20" fill="none" xmlns="http://www.w3.org/2000/svg">
<path d="M10 18.6696C5.24623 18.6696 1.37933 14.8028 1.37933 10.049C1.37933 5.29516 5.24623 1.42827 10 1.42827C14.7538 1.42827 18.6207 5.29516 18.6207 10.049C18.6207 14.8028 14.7538 18.6696 10 18.6696V18.6696ZM10 2.80758C6.00692 2.80758 2.75864 6.05585 2.75864 10.049C2.75864 14.0421 6.00692 17.2903 10 17.2903C13.9931 17.2903 17.2414 14.0414 17.2414 10.049C17.2414 6.05654 13.9931 2.80758 10 2.80758V2.80758Z" fill="white"/>
<path d="M10 14.8765C9.81711 14.8765 9.64169 14.8039 9.51236 14.6746C9.38302 14.5452 9.31036 14.3698 9.31036 14.1869V5.91103C9.31036 5.72812 9.38302 5.55271 9.51236 5.42337C9.64169 5.29403 9.81711 5.22137 10 5.22137C10.1829 5.22137 10.3583 5.29403 10.4877 5.42337C10.617 5.55271 10.6897 5.72812 10.6897 5.91103V14.1869C10.6897 14.3698 10.617 14.5452 10.4877 14.6746C10.3583 14.8039 10.1829 14.8765 10 14.8765Z" fill="white"/>
<path d="M14.1379 10.7386H5.86208C5.67917 10.7386 5.50376 10.666 5.37442 10.5366C5.24508 10.4073 5.17242 10.2319 5.17242 10.049C5.17242 9.86606 5.24508 9.69064 5.37442 9.56131C5.50376 9.43197 5.67917 9.35931 5.86208 9.35931H14.1379C14.3208 9.35931 14.4963 9.43197 14.6256 9.56131C14.7549 9.69064 14.8276 9.86606 14.8276 10.049C14.8276 10.2319 14.7549 10.4073 14.6256 10.5366C14.4963 10.666 14.3208 10.7386 14.1379 10.7386Z" fill="white"/>
</svg>
