<svg width="10" height="14" viewBox="0 0 10 14" fill="none" xmlns="http://www.w3.org/2000/svg">
<path d="M9.30533 5.00076L9.0953 11.8257C9.07741 12.4102 8.84806 12.9643 8.45593 13.3702C8.06379 13.7762 7.53975 14.0021 6.99501 14H3.00446C2.46008 14.0021 1.93634 13.7765 1.54426 13.371C1.15218 12.9656 0.922599 12.4121 0.904174 11.828L0.694145 5.00076C0.68955 4.85126 0.740463 4.70591 0.835683 4.5967C0.930904 4.4875 1.06263 4.42337 1.20189 4.41844C1.34115 4.41351 1.47653 4.46817 1.57825 4.5704C1.67997 4.67263 1.73969 4.81405 1.74429 4.96356L1.95432 11.7902C1.96478 12.0816 2.08002 12.3574 2.27584 12.5595C2.47165 12.7616 2.73281 12.8745 3.00446 12.8742H6.99501C7.26701 12.8744 7.52847 12.7613 7.72435 12.5587C7.92022 12.3561 8.03523 12.0798 8.04516 11.7879L8.25519 4.96356C8.25978 4.81405 8.31951 4.67263 8.42123 4.5704C8.52295 4.46817 8.65833 4.41351 8.79758 4.41844C8.93684 4.42337 9.06857 4.4875 9.16379 4.5967C9.25901 4.70591 9.30993 4.85126 9.30533 5.00076V5.00076ZM10 2.72954C10 2.87904 9.94468 3.02243 9.84621 3.12815C9.74774 3.23386 9.61419 3.29326 9.47493 3.29326H0.525072C0.385814 3.29326 0.25226 3.23386 0.15379 3.12815C0.0553198 3.02243 0 2.87904 0 2.72954C0 2.58003 0.0553198 2.43664 0.15379 2.33093C0.25226 2.22521 0.385814 2.16582 0.525072 2.16582H2.1528C2.31916 2.1663 2.47975 2.10031 2.6033 1.98069C2.72685 1.86107 2.80452 1.69638 2.82121 1.51867C2.85996 1.10179 3.04188 0.715327 3.33153 0.434581C3.62118 0.153836 3.9978 -0.00108421 4.38803 5.71211e-06H5.61145C6.00167 -0.00108421 6.3783 0.153836 6.66795 0.434581C6.95759 0.715327 7.13951 1.10179 7.17826 1.51867C7.19495 1.69638 7.27263 1.86107 7.39618 1.98069C7.51973 2.10031 7.68031 2.1663 7.84668 2.16582H9.4744C9.61366 2.16582 9.74721 2.22521 9.84568 2.33093C9.94416 2.43664 9.99947 2.58003 9.99947 2.72954H10ZM3.73274 2.16582H6.26779C6.19879 1.99656 6.15366 1.8172 6.13389 1.63367C6.12089 1.49471 6.0603 1.36589 5.96387 1.27216C5.86745 1.17843 5.74205 1.12646 5.61197 1.12632H4.38855C4.25848 1.12646 4.13308 1.17843 4.03665 1.27216C3.94023 1.36589 3.87964 1.49471 3.86663 1.63367C3.8467 1.81723 3.80139 1.99659 3.73221 2.16582H3.73274ZM4.26149 10.7067V5.90666C4.26149 5.75715 4.20617 5.61377 4.1077 5.50805C4.00923 5.40233 3.87567 5.34294 3.73641 5.34294C3.59716 5.34294 3.4636 5.40233 3.36513 5.50805C3.26666 5.61377 3.21134 5.75715 3.21134 5.90666V10.709C3.21134 10.8585 3.26666 11.0019 3.36513 11.1076C3.4636 11.2133 3.59716 11.2727 3.73641 11.2727C3.87567 11.2727 4.00923 11.2133 4.1077 11.1076C4.20617 11.0019 4.26149 10.8585 4.26149 10.709V10.7067ZM6.78918 10.7067V5.90666C6.78918 5.75715 6.73386 5.61377 6.63539 5.50805C6.53692 5.40233 6.40337 5.34294 6.26411 5.34294C6.12485 5.34294 5.9913 5.40233 5.89283 5.50805C5.79436 5.61377 5.73904 5.75715 5.73904 5.90666V10.709C5.73904 10.8585 5.79436 11.0019 5.89283 11.1076C5.9913 11.2133 6.12485 11.2727 6.26411 11.2727C6.40337 11.2727 6.53692 11.2133 6.63539 11.1076C6.73386 11.0019 6.78918 10.8585 6.78918 10.709V10.7067Z" fill="#A92424"/>
</svg>
