<svg width="16" height="16" viewBox="0 0 16 16" fill="none" xmlns="http://www.w3.org/2000/svg">
<path d="M13.6568 2.34314C14.4379 3.12419 14.4379 4.39052 13.6568 5.17157L6.27038 12.558C5.94998 12.8784 5.54853 13.1057 5.10895 13.2156L2.81795 13.7884C2.45176 13.8799 2.12006 13.5482 2.21161 13.182L2.78436 10.891C2.89426 10.4514 3.12155 10.05 3.44195 9.7296L10.8284 2.34314C11.6095 1.56209 12.8758 1.56209 13.6568 2.34314ZM10.1212 4.46435L4.14906 10.4367C3.95682 10.6289 3.82044 10.8698 3.7545 11.1336L3.38387 12.6161L4.86641 12.2455C5.13016 12.1795 5.37103 12.0432 5.56327 11.8509L11.5352 5.87835L10.1212 4.46435ZM11.5355 3.05025L10.8282 3.75735L12.2422 5.17135L12.9497 4.46446C13.3403 4.07394 13.3403 3.44077 12.9497 3.05025C12.5592 2.65972 11.926 2.65972 11.5355 3.05025Z" fill="#0D5497"/>
</svg>
