<svg width="300" height="201" viewBox="0 0 300 201" fill="none" xmlns="http://www.w3.org/2000/svg">
<rect width="300" height="201" fill="#E2E2E2"/>
<path d="M181.25 133.333H175V64.5833C175 64.0308 174.781 63.5009 174.39 63.1102C173.999 62.7195 173.469 62.5 172.917 62.5H127.083C126.531 62.5 126.001 62.7195 125.61 63.1102C125.22 63.5009 125 64.0308 125 64.5833V133.333H118.75C118.197 133.333 117.668 133.553 117.277 133.944C116.886 134.334 116.667 134.864 116.667 135.417C116.667 135.969 116.886 136.499 117.277 136.89C117.668 137.281 118.197 137.5 118.75 137.5H181.25C181.803 137.5 182.332 137.281 182.723 136.89C183.114 136.499 183.333 135.969 183.333 135.417C183.333 134.864 183.114 134.334 182.723 133.944C182.332 133.553 181.803 133.333 181.25 133.333ZM143.75 133.333V120.833H156.25V133.333H143.75ZM160.417 133.333V120.833H162.5C163.053 120.833 163.582 120.614 163.973 120.223C164.364 119.832 164.583 119.303 164.583 118.75C164.583 118.197 164.364 117.668 163.973 117.277C163.582 116.886 163.053 116.667 162.5 116.667H137.5C136.947 116.667 136.418 116.886 136.027 117.277C135.636 117.668 135.417 118.197 135.417 118.75C135.417 119.303 135.636 119.832 136.027 120.223C136.418 120.614 136.947 120.833 137.5 120.833H139.583V133.333H129.167V66.6667H170.833V133.333H160.417Z" fill="white"/>
<path d="M139.583 72.9167H135.417C134.864 72.9167 134.334 73.1362 133.944 73.5269C133.553 73.9176 133.333 74.4475 133.333 75C133.333 75.5525 133.553 76.0824 133.944 76.4731C134.334 76.8638 134.864 77.0833 135.417 77.0833H139.583C140.136 77.0833 140.666 76.8638 141.056 76.4731C141.447 76.0824 141.667 75.5525 141.667 75C141.667 74.4475 141.447 73.9176 141.056 73.5269C140.666 73.1362 140.136 72.9167 139.583 72.9167ZM152.083 72.9167H147.917C147.364 72.9167 146.834 73.1362 146.444 73.5269C146.053 73.9176 145.833 74.4475 145.833 75C145.833 75.5525 146.053 76.0824 146.444 76.4731C146.834 76.8638 147.364 77.0833 147.917 77.0833H152.083C152.636 77.0833 153.166 76.8638 153.556 76.4731C153.947 76.0824 154.167 75.5525 154.167 75C154.167 74.4475 153.947 73.9176 153.556 73.5269C153.166 73.1362 152.636 72.9167 152.083 72.9167ZM164.583 72.9167H160.417C159.864 72.9167 159.334 73.1362 158.944 73.5269C158.553 73.9176 158.333 74.4475 158.333 75C158.333 75.5525 158.553 76.0824 158.944 76.4731C159.334 76.8638 159.864 77.0833 160.417 77.0833H164.583C165.136 77.0833 165.666 76.8638 166.056 76.4731C166.447 76.0824 166.667 75.5525 166.667 75C166.667 74.4475 166.447 73.9176 166.056 73.5269C165.666 73.1362 165.136 72.9167 164.583 72.9167ZM139.583 83.3333H135.417C134.864 83.3333 134.334 83.5528 133.944 83.9435C133.553 84.3342 133.333 84.8641 133.333 85.4167C133.333 85.9692 133.553 86.4991 133.944 86.8898C134.334 87.2805 134.864 87.5 135.417 87.5H139.583C140.136 87.5 140.666 87.2805 141.056 86.8898C141.447 86.4991 141.667 85.9692 141.667 85.4167C141.667 84.8641 141.447 84.3342 141.056 83.9435C140.666 83.5528 140.136 83.3333 139.583 83.3333ZM152.083 83.3333H147.917C147.364 83.3333 146.834 83.5528 146.444 83.9435C146.053 84.3342 145.833 84.8641 145.833 85.4167C145.833 85.9692 146.053 86.4991 146.444 86.8898C146.834 87.2805 147.364 87.5 147.917 87.5H152.083C152.636 87.5 153.166 87.2805 153.556 86.8898C153.947 86.4991 154.167 85.9692 154.167 85.4167C154.167 84.8641 153.947 84.3342 153.556 83.9435C153.166 83.5528 152.636 83.3333 152.083 83.3333ZM164.583 83.3333H160.417C159.864 83.3333 159.334 83.5528 158.944 83.9435C158.553 84.3342 158.333 84.8641 158.333 85.4167C158.333 85.9692 158.553 86.4991 158.944 86.8898C159.334 87.2805 159.864 87.5 160.417 87.5H164.583C165.136 87.5 165.666 87.2805 166.056 86.8898C166.447 86.4991 166.667 85.9692 166.667 85.4167C166.667 84.8641 166.447 84.3342 166.056 83.9435C165.666 83.5528 165.136 83.3333 164.583 83.3333ZM139.583 93.75H135.417C134.864 93.75 134.334 93.9695 133.944 94.3602C133.553 94.7509 133.333 95.2808 133.333 95.8333C133.333 96.3859 133.553 96.9158 133.944 97.3065C134.334 97.6972 134.864 97.9167 135.417 97.9167H139.583C140.136 97.9167 140.666 97.6972 141.056 97.3065C141.447 96.9158 141.667 96.3859 141.667 95.8333C141.667 95.2808 141.447 94.7509 141.056 94.3602C140.666 93.9695 140.136 93.75 139.583 93.75ZM152.083 93.75H147.917C147.364 93.75 146.834 93.9695 146.444 94.3602C146.053 94.7509 145.833 95.2808 145.833 95.8333C145.833 96.3859 146.053 96.9158 146.444 97.3065C146.834 97.6972 147.364 97.9167 147.917 97.9167H152.083C152.636 97.9167 153.166 97.6972 153.556 97.3065C153.947 96.9158 154.167 96.3859 154.167 95.8333C154.167 95.2808 153.947 94.7509 153.556 94.3602C153.166 93.9695 152.636 93.75 152.083 93.75ZM164.583 93.75H160.417C159.864 93.75 159.334 93.9695 158.944 94.3602C158.553 94.7509 158.333 95.2808 158.333 95.8333C158.333 96.3859 158.553 96.9158 158.944 97.3065C159.334 97.6972 159.864 97.9167 160.417 97.9167H164.583C165.136 97.9167 165.666 97.6972 166.056 97.3065C166.447 96.9158 166.667 96.3859 166.667 95.8333C166.667 95.2808 166.447 94.7509 166.056 94.3602C165.666 93.9695 165.136 93.75 164.583 93.75ZM139.583 104.167H135.417C134.864 104.167 134.334 104.386 133.944 104.777C133.553 105.168 133.333 105.697 133.333 106.25C133.333 106.803 133.553 107.332 133.944 107.723C134.334 108.114 134.864 108.333 135.417 108.333H139.583C140.136 108.333 140.666 108.114 141.056 107.723C141.447 107.332 141.667 106.803 141.667 106.25C141.667 105.697 141.447 105.168 141.056 104.777C140.666 104.386 140.136 104.167 139.583 104.167ZM152.083 104.167H147.917C147.364 104.167 146.834 104.386 146.444 104.777C146.053 105.168 145.833 105.697 145.833 106.25C145.833 106.803 146.053 107.332 146.444 107.723C146.834 108.114 147.364 108.333 147.917 108.333H152.083C152.636 108.333 153.166 108.114 153.556 107.723C153.947 107.332 154.167 106.803 154.167 106.25C154.167 105.697 153.947 105.168 153.556 104.777C153.166 104.386 152.636 104.167 152.083 104.167ZM164.583 104.167H160.417C159.864 104.167 159.334 104.386 158.944 104.777C158.553 105.168 158.333 105.697 158.333 106.25C158.333 106.803 158.553 107.332 158.944 107.723C159.334 108.114 159.864 108.333 160.417 108.333H164.583C165.136 108.333 165.666 108.114 166.056 107.723C166.447 107.332 166.667 106.803 166.667 106.25C166.667 105.697 166.447 105.168 166.056 104.777C165.666 104.386 165.136 104.167 164.583 104.167Z" fill="white"/>
</svg>
