<svg width="10" height="17" viewBox="0 0 10 17" fill="none" xmlns="http://www.w3.org/2000/svg">
<rect width="10" height="17" rx="5" fill="white"/>
<path d="M6 4C6 3.73478 5.89469 3.48026 5.70715 3.29272C5.51962 3.10519 5.26522 3 5 3C4.73478 3 4.48038 3.10519 4.29285 3.29272C4.10531 3.48026 4 3.73478 4 4C4 4.26522 4.10531 4.51949 4.29285 4.70703C4.48038 4.89457 4.73478 5 5 5C5.26522 5 5.51962 4.89457 5.70715 4.70703C5.89469 4.51949 6 4.26522 6 4ZM6 8C6 7.73478 5.89469 7.48026 5.70715 7.29272C5.51962 7.10519 5.26522 7 5 7C4.73478 7 4.48038 7.10519 4.29285 7.29272C4.10531 7.48026 4 7.73478 4 8C4 8.26522 4.10531 8.51949 4.29285 8.70703C4.48038 8.89457 4.73478 9 5 9C5.26522 9 5.51962 8.89457 5.70715 8.70703C5.89469 8.51949 6 8.26522 6 8ZM6 12C6 11.7348 5.89469 11.4803 5.70715 11.2927C5.51962 11.1052 5.26522 11 5 11C4.73478 11 4.48038 11.1052 4.29285 11.2927C4.10531 11.4803 4 11.7348 4 12C4 12.2652 4.10531 12.5195 4.29285 12.707C4.48038 12.8946 4.73478 13 5 13C5.26522 13 5.51962 12.8946 5.70715 12.707C5.89469 12.5195 6 12.2652 6 12Z" fill="#0D4F88"/>
</svg>
