<svg width="10" height="10" viewBox="0 0 10 10" fill="none" xmlns="http://www.w3.org/2000/svg">
<path d="M8.03945 9.97153C7.68369 10.2376 5.40093 8.55103 4.96373 8.54732C4.52652 8.54365 2.21807 10.1914 1.86645 9.91938C1.51483 9.64734 2.34147 6.85316 2.20973 6.4167C2.078 5.98025 -0.13221 4.19082 0.00623934 3.75664C0.144719 3.32245 2.93836 3.28212 3.29413 3.01606C3.6499 2.75003 4.59239 -0.00367125 5.02962 3.6749e-06C5.46679 0.00371055 6.36671 2.77297 6.71833 3.04501C7.06994 3.31702 9.86264 3.40458 9.99441 3.84103C10.1261 4.27748 7.88867 6.02933 7.75019 6.46352C7.61174 6.8977 8.39522 9.70547 8.03945 9.97153Z" fill="url(#paint0_linear_7_13)"/>
<defs>
<linearGradient id="paint0_linear_7_13" x1="1.28e-05" y1="5.00001" x2="9.99999" y2="5.00001" gradientUnits="userSpaceOnUse">
<stop stop-color="#FCD635"/>
<stop offset="1" stop-color="#F7A928"/>
</linearGradient>
</defs>
</svg>
